<!-- Copyright 2000-2024 JetBrains s.r.o. and contributors. Use of this source code is governed by the Apache 2.0 license. -->
<svg width="16" height="16" viewBox="0 0 16 16" fill="none" xmlns="http://www.w3.org/2000/svg">
<path d="M3.00003 8C3.00003 5.23858 5.23861 3 8.00003 3C9.00694 3 9.94293 3.29711 10.7269 3.8083C10.9583 3.95912 11.268 3.89387 11.4189 3.66255C11.5697 3.43124 11.5044 3.12145 11.2731 2.97063C10.3316 2.35673 9.2067 2 8.00003 2C4.68632 2 2.00003 4.68629 2.00003 8V8.29298L0.853526 7.14665C0.658249 6.9514 0.341667 6.95142 0.14642 7.1467C-0.0488276 7.34198 -0.0488034 7.65856 0.146474 7.85381L2.1465 9.85353C2.34176 10.0488 2.65831 10.0488 2.85356 9.85353L4.85355 7.85375C5.04882 7.6585 5.04884 7.34192 4.85359 7.14665C4.65834 6.95138 4.34175 6.95136 4.14648 7.14661L3.00003 8.29294V8Z" fill="#369650"/>
<path d="M5.27318 12.1917C6.05719 12.7029 6.99318 13 8.00009 13C10.7615 13 13.0001 10.7614 13.0001 8V7.70696L11.8536 8.85337C11.6583 9.04862 11.3417 9.04861 11.1465 8.85334C10.9512 8.65807 10.9512 8.34149 11.1465 8.14623L13.1465 6.14642C13.3418 5.95118 13.6583 5.95118 13.8536 6.14642L15.8536 8.14623C16.0488 8.34149 16.0489 8.65807 15.8536 8.85334C15.6583 9.04861 15.3418 9.04862 15.1465 8.85337L14.0001 7.70707V8C14.0001 11.3137 11.3138 14 8.00009 14C6.79342 14 5.66854 13.6433 4.727 13.0294C4.49568 12.8785 4.43043 12.5688 4.58125 12.3374C4.73207 12.1061 5.04186 12.0409 5.27318 12.1917Z" fill="#369650"/>
</svg>
